<svg id="Capa_1" enable-background="new 0 0 512.133 512.133" height="512" viewBox="0 0 512.133 512.133" width="512" xmlns="http://www.w3.org/2000/svg"><g><g><g><path d="m175.03 188.117-67.31 37.596-7.832 75.965-9.279 23.345-1.329 3.25c-3.746 9.163-12.663 15.15-22.562 15.15-13.462 0-24.375-10.913-24.375-24.375v-97.558c0-15.192 6.688-29.613 18.285-39.427l79.661-67.413c5.072-4.292 11.501-6.647 18.145-6.647h48.17c5.174 0 10.247 1.429 14.66 4.129l7.663 4.689 81.689 52.415-12.997 50.629z" fill="#ffdfcf"/></g><g id="XMLID_442_"><g><path d="m31.819 391.672-12.321 2.184c-.86 1.14-11.92 50.41-11.92 50.41-.53 2.4 1.96 4.34 4.16 3.24l43.11-21.62 4.328-11.266z" fill="#fae2c0"/><path d="m35.295 412.978 8.508-11.254-11.983-10.052-12.321 2.184c-.86 1.14-11.92 50.41-11.92 50.41-.53 2.4 1.96 4.34 4.16 3.24l17.214-8.633c2.89-12.545 5.909-25.321 6.342-25.895z" fill="#fdd79b"/><path d="m262.484 131.642-18.466-14.262-23.39 10.415-201.13 266.06 35.35 32.03c1.36-.68 2.54-1.66 3.45-2.86l201.26-266.24-.02-.02z" fill="#fee45a"/><path d="m295.348 69.206c-10.69-8.08-25.91-5.97-34 4.72l-17.33 22.93-1.46 17.657 22.169 18.391 18.231-7.078 17.11-22.63c3.31-4.38 4.91-9.52 4.91-14.62 0-7.34-3.32-14.6-9.63-19.37z" fill="#f3eae6"/><path d="m277.145 93.048c6.562-8.671 17.825-11.677 27.547-8.199-.933-6.004-4.112-11.689-9.343-15.644-10.69-8.08-25.91-5.97-34 4.72l-17.33 22.93-1.46 17.657 11.284 9.361z" fill="#efe2dd"/><g><path d="m253.32 124.565-9.302-7.184-23.39 10.415-201.13 266.06 17.954 16.268 35.441-46.883c3.524-4.662 10.302-5.389 14.654-1.489 3.409 3.056 7.206 5.63 11.275 7.665l144.794-191.544-37.867 21.862c-3.629 2.095-7.514-2.304-4.988-5.646z" fill="#fedf30"/><path d="m209.628 220.536c2-1.13 3.75-2.66 5.14-4.5l55.76-73.76 119.01 61.81h109.252c3.224 0 5.838 2.614 5.838 5.838v116.643c0 3.224-2.614 5.838-5.838 5.838h-117.312c-5.28 7.42-11.86 13.85-19.41 18.95-12.1 8.18-26.7 12.95-42.4 12.95-28.259 0-52.907-15.461-65.95-38.374-2.033-3.571-5.884-5.717-9.993-5.717l-57.223-.008c-2.142 0-4.236.631-6.021 1.814l-41.693 27.645c-5.27 3.49-11.23 5.17-17.12 5.17-9.73 0-19.29-4.56-25.33-13.07-8.82-12.42-7.31-29.41 3.55-40.09l45.73-44.94z" fill="#ffdfcf"/><path d="m504.129 290.204h-90.601c-14.818 0-29.04 5.372-40.501 14.763-1.805 1.479-3.68 2.877-5.619 4.187-12.1 8.18-26.7 12.95-42.4 12.95-23.318 0-44.177-10.527-58.087-27.082-9.065-10.789-22.44-17.01-36.532-17.012l-28.563-.004c-8.653-.001-17.114 2.548-24.325 7.33l-33.372 22.128c-5.27 3.49-11.23 5.17-17.12 5.17-9.65 0-19.129-4.491-25.177-12.867l-1.942 1.909c-10.86 10.68-12.37 27.67-3.55 40.09 6.04 8.51 15.6 13.07 25.33 13.07 5.89 0 11.85-1.68 17.12-5.17l41.693-27.645c1.785-1.183 3.879-1.815 6.021-1.814l57.223.008c4.109.001 7.961 2.147 9.993 5.717 13.043 22.913 37.692 38.374 65.95 38.374 15.7 0 30.3-4.77 42.4-12.95 7.55-5.1 14.13-11.53 19.41-18.95h117.31c3.224 0 5.838-2.614 5.838-5.838v-36.388c-.165.013-.331.024-.499.024z" fill="#ffcebf"/></g><path d="m282.958 125.826-12.43 16.45-10.97 14.51-.02-.02-38.91-28.97 23.39-30.94z" fill="#fae2c0"/><path d="m263.378 111.259-19.36-14.403-23.39 30.94 19.355 14.41z" fill="#fdd79b"/></g></g></g><g><path d="m447.938 211.589h56.695c4.143 0 7.5-3.358 7.5-7.5s-3.357-7.5-7.5-7.5h-56.695c-4.143 0-7.5 3.358-7.5 7.5s3.357 7.5 7.5 7.5z"/></g></g><path d="m504.633 324.909h-110.017c.638-1.313 1.256-2.641 1.83-3.997 1.614-3.815-.171-8.216-3.985-9.83-3.815-1.612-8.216.17-9.829 3.986-10.724 25.353-35.438 41.735-62.964 41.735-26.572 0-50.94-15.597-62.08-39.735-1.226-2.656-3.884-4.357-6.81-4.357l-67.558-.002c-1.474 0-2.916.435-4.145 1.249l-44.437 29.459c-10.651 7.062-24.79 4.43-32.187-5.992-6.725-9.472-5.592-22.257 2.693-30.399l45.021-44.252 63.157-35.714c2.909-1.646 5.406-3.832 7.422-6.498l51.945-68.713 113.389 58.895c1.068.555 2.254.844 3.457.844h26.437c4.143 0 7.5-3.358 7.5-7.5s-3.357-7.5-7.5-7.5h-24.602l-109.503-56.877 24.186-31.994c10.563-13.973 7.788-33.935-6.186-44.499-13.972-10.563-33.935-7.789-44.498 6.184l-28.327 37.471-1.866-1.142c-5.595-3.422-12.018-5.231-18.573-5.231h-48.17c-8.408 0-16.573 2.991-22.99 8.422l-39.773 33.663c-3.162 2.676-3.556 7.408-.881 10.57 1.484 1.753 3.6 2.655 5.729 2.655 1.711 0 3.433-.583 4.841-1.775l39.774-33.659c3.713-3.142 8.437-4.873 13.301-4.873h48.17c3.793 0 7.509 1.047 10.745 3.026l.605.37-47.957 63.438-65.934 36.829c-2.134 1.192-3.553 3.348-3.803 5.779l-7.573 73.451c-6.334 7.189-9.598 16.19-9.626 25.271l-.723 1.767c-2.605 6.372-8.736 10.489-15.62 10.489-9.305 0-16.875-7.57-16.875-16.875v-97.558c0-13.012 5.696-25.295 15.629-33.702l15.459-13.082c3.162-2.676 3.557-7.408.881-10.57-2.675-3.161-7.406-3.556-10.57-.88l-15.46 13.082c-13.307 11.262-20.938 27.719-20.938 45.151v97.558c0 10.346 4.958 19.553 12.62 25.38l-33.951 44.91c-1.504 1.99-2.579 4.329-3.11 6.764l-10.158 46.569c-.863 3.96.589 7.965 3.79 10.451 1.879 1.459 4.115 2.206 6.375 2.206.229 0 .459-.025.688-.04.211.018.423.032.639.032h262.658c4.143 0 7.5-3.358 7.5-7.5s-3.357-7.5-7.5-7.5h-231.596l15.416-7.729c2.37-1.188 4.468-2.934 6.063-5.046l15.495-20.498c2.498-3.305 1.845-8.008-1.46-10.506-3.305-2.499-8.009-1.843-10.505 1.46l-13.237 17.511-24.954-22.603 32.046-42.39c1.647.264 3.335.405 5.056.405 8.095 0 15.626-3.027 21.351-8.211.654 1.156 1.366 2.291 2.151 3.397 2.715 3.825 5.988 7.004 9.624 9.512l-12.717 16.821c-2.498 3.304-1.845 8.008 1.46 10.506 1.354 1.023 2.941 1.518 4.517 1.518 2.271 0 4.514-1.027 5.988-2.978l14.999-19.84c9.621 1.92 19.966.153 28.837-5.729l42.552-28.21 60.656.002c14.407 26.939 42.756 44.092 73.531 44.092 26.057 0 50.043-12.045 65.59-31.895h119.375c4.143 0 7.5-3.358 7.5-7.5s-3.358-7.499-7.5-7.499zm-462.934 99.181-24.756 12.412 6.345-29.088zm167.083-212.573c-.772 1.021-1.729 1.858-2.841 2.488l-64.017 36.2c-.571.323-1.098.719-1.566 1.18l-14.607 14.358 96.37-127.481 26.904 20.023zm49.288-65.199-26.904-20.023 14.35-18.983 26.904 20.023zm9.265-67.868c3.293-4.355 8.315-6.649 13.396-6.649 3.521 0 7.071 1.103 10.092 3.386 7.375 5.576 8.839 16.112 3.265 23.487l-12.622 16.696-26.904-20.023zm-119.818 133.626-35.722 47.254 2.987-28.969z"/></svg>