<?xml version="1.0" encoding="iso-8859-1"?>
<!-- Generator: Adobe Illustrator 19.0.0, SVG Export Plug-In . SVG Version: 6.00 Build 0)  -->
<svg version="1.1" id="Capa_1" xmlns="http://www.w3.org/2000/svg" xmlns:xlink="http://www.w3.org/1999/xlink" x="0px" y="0px"
	 viewBox="0 0 386 386" style="enable-background:new 0 0 386 386;" xml:space="preserve">
<path style="fill:#FFFFFF;" d="M299.2,234.2V229l0,0c0-1.2,0.4-2.4,0.8-3.6s1.2-2,2.4-2.8c0.8-0.8,2-1.2,3.2-1.6l0,0
	c1.2-0.4,2.4-0.4,3.6-0.4h4.4c4.4,0,7.2,0,9.6,0c3.2,0,6,0,8.8,0h6.4l0,0h2.8l0,0c2.8,0,4.8,0.8,6,2.4l0,0c1.6,1.6,2.4,3.2,2.4,5.6
	s-0.4,4-1.2,5.6c-0.8,1.6-2.4,2.8-4,3.2H344c-0.8,0-3.2,0.4-7.2,0.4c-4.4,0-10,0-16.8,0h-1.6v5.6l0,0v8.4h1.6c3.6,0,6.4,0,8.4,0
	c2.8,0,5.2,0,7.6,0l0,0c1.6,0,2.8,0,4,0.4l0,0c1.2,0.4,2.4,0.8,3.2,1.2c1.2,0.8,1.6,1.6,2,2.8c0.4,1.2,0.4,2.4,0.4,4l0,0
	c0,2.8-0.8,4.8-2.4,6c-1.6,1.6-3.6,2-6.4,2h-19.2v0.4c0,0.8,0,2,0,3.6v9.2c4,0,7.2,0,9.6,0c3.6,0,6.4,0,9.2,0l0,0c1.2,0,2.4,0,3.6,0
	c1.6,0,2.8,0,3.2,0c5.2,0,8,2.8,8,8.4c0,2.8-0.8,4.8-2.4,6.4s-3.6,2.4-6.4,2.4l0,0h-29.6c-2.4,0-4,0-5.6-0.4s-3.2-0.8-4-1.2
	c-2.4-1.2-3.6-3.6-3.6-7.2l0,0c0-0.8,0-1.6,0-2c0-0.8,0-1.2,0-1.6l0,0V285v-3.6l0,0c0-1.6,0-3.2,0-5.2s0-4.4,0-6.8
	c0-2.8,0-5.2,0-7.6c0-1.6,0-4,0-6.8v-5.2v-7.2L299.2,234.2z M273.6,220.2c3.2,0.8,6.4,1.6,9.2,3.2l0,0c3.6,1.6,5.2,4.4,5.2,8.4
	c0,1.2-0.4,2-0.8,3.2c-0.4,0.8-0.8,2-1.6,2.8c-1.6,2-3.6,2.8-6,2.8c-0.8,0-2,0-3.2-0.4s-2.4-0.8-3.6-1.2l0,0
	c-1.6-0.8-3.2-1.2-4.8-1.6c-1.6-0.4-3.2-0.4-4.8-0.4c-1.2,0-2.4,0-3.6,0.4s-2,0.8-3.2,1.6c-0.8,0.8-1.6,1.2-2,2l0,0
	c-0.4,0.8-0.4,1.6-0.4,2.4s0,1.6,0.4,2s0.8,1.2,1.6,1.6c0.8,0.4,2.4,0.8,3.6,1.6c1.6,0.4,3.6,0.8,5.6,1.2l0,0c4,0.8,7.6,2,10.4,3.2
	c3.2,1.2,5.6,2.8,8,4.4s4,4,5.2,6.8s1.6,5.6,1.6,9.2c0,4-0.8,7.2-2,10.4c-1.2,3.2-3.6,6-6,8l0,0c-2.8,2.4-5.6,4-9.2,5.2
	s-7.2,1.6-11.2,2l0,0c-4,0-8-0.4-11.6-1.2c-3.6-0.8-7.2-2-10-3.2l0,0c-2-0.8-3.6-2-4.4-3.6c-1.2-1.6-1.6-3.2-1.6-5.2
	c0-1.2,0-2.4,0.4-3.6s0.8-2,1.6-3.2l0,0c0.8-0.8,1.6-1.6,2.8-2.4l0,0c1.2-0.4,2-0.8,3.2-0.8c0.8,0,2,0,3.2,0.4l0,0
	c1.2,0.4,2.4,0.8,3.6,1.2l0,0c2.4,1.2,4.8,2,6.8,2.4c2,0.4,4,0.8,5.6,0.8s2.8,0,4-0.4s2.4-0.8,3.2-1.6c0.8-0.8,1.6-1.2,2-2
	s0.8-1.6,0.8-2.8c0-0.8,0-1.6-0.4-2.4s-1.2-1.2-2-1.6c-1.2-0.8-2.4-1.2-3.6-1.6c-1.6-0.4-3.2-0.8-5.2-1.2l0,0
	c-4-0.8-7.2-1.6-10.4-2.8c-3.2-1.2-5.6-2.4-8-4s-4-3.6-5.2-6.4l0,0c-1.2-2.4-1.6-5.2-1.6-8.4c0-3.6,0.8-6.8,2-10
	c1.6-3.2,3.6-5.6,6.4-8s6-4.4,9.2-5.6s6.8-2,10.8-2C266.8,219.4,270.4,219.8,273.6,220.2z M204.4,274.2c3.6-4.4,5.6-9.6,5.6-15.6
	l0,0c0-3.2-0.4-6-1.6-8.8c-0.8-2.4-2.4-4.8-4.4-6.8s-4-3.2-6.4-4.4c-2.4-0.8-4.8-1.6-7.6-1.6c-2.4,0-4.8,0.4-6.8,1.6s-4,2.4-6,4.8
	c-3.6,4-5.2,9.6-5.2,16c0,3.2,0.4,6,1.2,8.8c0.8,2.4,2.4,4.8,4,6.8c2,2,4,3.2,6,4.4c2.4,0.8,4.8,1.6,7.6,1.6c2.4,0,4.8-0.4,7.2-1.6
	C200.4,278.2,202.4,276.2,204.4,274.2z M176.8,222.2c4.4-2,9.2-2.8,14-2.8l0,0c5.2,0,10,0.8,14.4,2.8s8.8,4.4,12.4,8.4
	c3.6,3.6,6.8,8,8.4,12.4c2,4.8,2.8,9.6,2.8,15.2S228,269,226,273.8c-2,4.8-4.8,9.2-8.4,13.2s-8,6.8-12.4,8.8s-9.6,2.8-15.2,2.8
	c-4.8,0-9.6-0.8-14-2.8c-4.4-1.6-8.4-4.4-12.4-8s-6.8-7.6-8.4-12.4c-2-4.4-2.8-9.6-2.8-15.2c0-6,0.8-11.6,2.8-16.4
	c2-5.2,4.8-9.6,8.8-13.2C168,227,172.4,224.2,176.8,222.2z M104.8,243c0-8,0-12.8,0-14.4l0,0c0-1.2,0.4-2.4,0.8-3.6
	c0.4-1.2,1.2-2,2.4-2.8l0,0c2-1.2,4-2,6.8-2c6,0,9.2,2.8,9.2,8.4c0,0.8,0,3.2,0,7.2c0,3.6,0,8.4,0,14.4l0,0c0,2,0,4.8,0,8
	c0,2.4,0,6,0,11.2v10.8c2,0,3.6,0,4.4,0c1.6,0,2.8,0,3.6,0l0,0l14.4-0.4l0,0c1.2,0,2.4,0,3.6,0.4c1.2,0.4,2,1.2,2.8,2
	s1.2,1.6,1.6,2.8c0.4,1.2,0.4,2,0.4,3.2c0,6.4-2.8,9.6-8.4,9.6l0,0h-12l0,0c-3.6,0-6.4,0-8.4,0c-2.4,0-4.4,0-5.6,0l0,0
	c-5.2,0.4-8.8-0.4-10.8-1.6c-1.2-0.8-2-2-2.8-3.2s-1.2-2.8-1.2-4.8l0,0c0-1.6-0.4-2.8-0.4-4.4c0-0.8,0-2.4,0-4.4l0,0
	c0-2,0-4.4,0.4-7.6c0-2.8,0-5.6,0.4-8l0,0c0-2,0-4,0-6C104.8,254.2,104.8,249,104.8,243z M82,220.6c2.8,0.4,5.2,1.2,7.6,2.4
	c2.4,0.8,4,2,5.2,3.6s2,3.2,2,5.2l0,0c0,1.2-0.4,2.4-0.4,3.6c-0.4,1.2-0.8,2-1.6,2.8s-1.6,1.6-2.8,2s-2,0.8-3.6,0.8l0,0
	c-0.8,0-2-0.4-2.8-0.4l0,0c-0.8-0.4-2-0.8-3.2-1.2l0,0c-1.6-0.8-3.6-1.2-5.2-1.6c-1.6-0.4-3.2-0.4-5.2-0.4c-2.4,0-4.8,0.4-6.8,1.6
	c-2,1.2-4,2.4-6,4.8c-2,2-3.2,4.4-4,7.2c-0.8,2.8-1.6,6-1.6,9.2c0,6,2,10.8,5.6,14.8c2,2,4,3.6,6,4.4c2,0.8,4.4,1.6,6.8,1.6l0,0
	c1.6,0,3.6-0.4,5.6-0.8s3.6-1.2,5.6-2c1.2-0.8,2.4-1.2,3.6-1.6l0,0c1.2-0.4,2-0.4,2.8-0.4l0,0c1.2,0,2.4,0.4,3.6,0.8
	c1.2,0.4,2,1.2,2.8,2.4l0,0c0.8,0.8,1.2,2,1.6,3.2c0.4,1.2,0.4,2.4,0.4,3.6l0,0c0,2-0.8,3.6-2.8,5.2c-1.6,1.6-3.6,2.8-6.4,4
	c-2.8,1.2-5.6,2-8.4,2.8c-2.8,0.4-6,0.8-9.2,0.8c-4.8,0-9.6-1.2-13.6-2.8c-4.4-1.6-8.4-4.4-12-8s-6.4-7.6-8-12.4l0,0
	c-1.6-4.8-2.8-9.6-2.4-15.6c0-4,0.4-7.6,1.6-11.2l0,0c0.8-3.6,2.4-6.8,4.4-10s4-6,6.4-8.4s5.2-4.4,8-6s6-2.8,8.8-3.6l0,0
	c2.8-0.8,6-1.2,9.2-1.2l0,0C76.4,219.8,79.6,220.2,82,220.6z"/>
<path style="fill:#983C2A;" d="M378.8,156.6L378.8,156.6c-4.4-4.4-10.4-7.2-17.2-7.2h-36.8L227.2,47.8c-0.8-8-4.4-14.8-10-20.4
	c-6.4-6.4-14.8-10-24.4-10s-18.4,4-24.4,10c-5.2,5.2-8.8,12.4-10,20.4L60.8,149.4H24.4c-6.8,0-12.8,2.8-17.2,7.2l0,0l0,0l0,0
	C2.8,161,0,167,0,173.8v170.4c0,6.8,2.8,12.8,7.2,17.2c4.4,4.4,10.4,7.2,17.2,7.2h337.2c6.8,0,12.8-2.8,17.2-7.2l0,0
	c4.4-4.4,7.2-10.4,7.2-17.2V173.8C386,167,383.2,161,378.8,156.6z M182.4,41.4c2.8-2.8,6.4-4.4,10.4-4.4s7.6,1.6,10.4,4.4
	s4.4,6.4,4.4,10.4s-1.6,7.6-4.4,10.4l-0.4,0.4c-2.8,2.4-6,4-10,4s-7.6-1.6-10.4-4.4l0,0l0,0c-2.8-2.8-4.4-6.4-4.4-10.4
	C178,47.8,179.6,44.2,182.4,41.4z M163.6,71c1.2,2,2.8,4,4.4,5.6l0,0c6.4,6.4,14.8,10,24.4,10c9.2,0,17.6-3.6,24-9.6
	c0.4,0,0.4-0.4,0.8-0.4c1.6-1.6,3.2-3.6,4.4-5.6l75.6,78.4H88.4L163.6,71z M366,344.2c0,1.2-0.4,2.4-1.2,3.2l0,0
	c-0.8,0.8-2,1.2-3.2,1.2H24c-1.2,0-2.4-0.4-3.2-1.2c-0.8-0.8-1.2-2-1.2-3.2V173.8c0-1.2,0.4-2.4,1.2-3.2l0,0c0.8-0.8,2-1.2,3.2-1.2
	h337.2c1.2,0,2.4,0.4,3.2,1.2l0,0c0.8,0.8,1.2,2,1.2,3.2v170.4H366z"/>
<g>
	<path style="fill:#FFE749;" d="M178,51.8c0,4,1.6,7.6,4.4,10.4l0,0l0,0c2.8,2.8,6.4,4.4,10.4,4.4c4,0,7.6-1.6,10-4l0.4-0.4
		c2.8-2.8,4.4-6.4,4.4-10.4s-1.6-7.6-4.4-10.4s-6.4-4.4-10.4-4.4s-7.6,1.6-10.4,4.4C179.6,44.2,178,47.8,178,51.8z"/>
	<g>
		<path style="fill:#F16A73;" d="M298.8,275v-6.8v-7.6v-6.8v-5.2v-7.2v-7.2V229l0,0c0-1.2,0.4-2.4,0.8-3.6s1.2-2,2.4-2.8
			c0.8-0.8,2-1.2,3.2-1.6s2.4-0.4,3.6-0.4h4.4h9.6h8.8h6.4h2.8l0,0c2.8,0,4.8,0.8,6,2.4c1.6,1.6,2.4,3.2,2.4,5.6s-0.4,4-1.2,5.6
			c-0.8,1.6-2.4,2.8-4,3.2h-0.4c-0.8,0-3.2,0.4-7.2,0.4c-4.4,0-10,0-16.8,0H318v5.6l0,0v8.4h1.6h8.4h7.6l0,0c1.6,0,2.8,0,4,0.4
			s2.4,0.8,3.2,1.2c1.2,0.8,1.6,1.6,2,2.8c0.4,1.2,0.4,2.4,0.4,4l0,0c0,2.8-0.8,4.8-2.4,6c-1.6,1.6-3.6,2-6.4,2h-19.2v0.4v3.6v9.2
			h9.6h9.2l0,0h3.6h3.2c5.2,0,8,2.8,8,8.4c0,2.8-0.8,4.8-2.4,6.4s-3.6,2.4-6.4,2.4l0,0h-29.6c-2.4,0-4,0-5.6-0.4s-3.2-0.8-4-1.2
			c-2.4-1.2-3.6-3.6-3.6-7.2v-2c0-0.8,0-1.2,0-1.6V285v-3.6L298.8,275z M234,285.4c0-1.2,0-2.4,0.4-3.6s0.8-2,1.6-3.2
			c0.8-0.8,1.6-1.6,2.8-2.4c1.2-0.4,2-0.8,3.2-0.8c0.8,0,2,0,3.2,0.4s2.4,0.8,3.6,1.2l0,0c2.4,1.2,4.8,2,6.8,2.4
			c2,0.4,4,0.8,5.6,0.8s2.8,0,4-0.4s2.4-0.8,3.2-1.6c0.8-0.8,1.6-1.2,2-2s0.8-1.6,0.8-2.8c0-0.8,0-1.6-0.4-2.4s-1.2-1.2-2-1.6
			c-1.2-0.8-2.4-1.2-3.6-1.6c-1.6-0.4-3.2-0.8-5.2-1.2c-4-0.8-7.2-1.6-10.4-2.8c-3.2-1.2-5.6-2.4-8-4s-4-3.6-5.2-6.4
			c-1.2-2.4-1.6-5.2-1.6-8.4c0-3.6,0.8-6.8,2-10c1.6-3.2,3.6-5.6,6.4-8s6-4.4,9.2-5.6s6.8-2,10.8-2c3.6,0,7.2,0.4,10.4,1.2
			c3.2,0.8,6.4,1.6,9.2,3.2c3.6,1.6,5.2,4.4,5.2,8.4c0,1.2-0.4,2-0.8,3.2c-0.4,0.8-0.8,2-1.6,2.8c-1.6,2-3.6,2.8-6,2.8
			c-0.8,0-2,0-3.2-0.4s-2.4-0.8-3.6-1.2c-1.6-0.8-3.2-1.2-4.8-1.6c-1.6-0.8-3.2-0.8-4.8-0.8c-1.2,0-2.4,0-3.6,0.4s-2,0.8-3.2,1.6
			c-0.8,0.8-1.6,1.2-2,2s-0.4,1.6-0.4,2.4s0,1.6,0.4,2s0.8,1.2,1.6,1.6c0.8,0.4,2.4,0.8,3.6,1.6c1.6,0.4,3.6,0.8,5.6,1.2l0,0
			c4,0.8,7.6,2,10.4,3.2c3.2,1.2,5.6,2.8,8,4.4s4,4,5.2,6.8s1.6,5.6,1.6,9.2c0,4-0.8,7.2-2,10.4c-1.2,3.2-3.6,6-6,8
			c-2.8,2.4-5.6,4-9.2,5.2s-7.2,1.6-11.2,2l0,0c-4,0-8-0.4-11.6-1.2c-3.6-0.8-7.2-2-10-3.2c-2-0.8-3.6-2-4.4-3.6
			C234.4,289.4,234,287.4,234,285.4z M73.2,219.8c3.2,0,6.4,0.4,9.2,0.8s5.2,1.2,7.6,2.4c2.4,0.8,4,2,5.2,3.6s2,3.2,2,5.2l0,0
			c0,1.2-0.4,2.4-0.4,3.6c-0.4,1.2-0.8,2-1.6,2.8s-1.6,1.6-2.8,2s-2,0.8-3.6,0.8l0,0c-0.8,0-2-0.4-2.8-0.4c-0.8-0.4-2-0.8-3.2-1.2
			c-1.6-0.8-3.6-1.2-5.2-1.6c-1.6-0.4-3.2-0.4-5.2-0.4c-2.4,0-4.8,0.4-6.8,1.6c-2,1.2-4,2.4-6,4.8c-2,2-3.2,4.4-4,7.2
			c-0.8,2.8-1.6,6-1.6,9.2c0,6,2,10.8,5.6,14.8c2,2,4,3.6,6,4.4c2,0.8,4.4,1.6,6.8,1.6c1.6,0,3.6-0.4,5.6-0.8s3.6-1.2,5.6-2
			c1.2-0.8,2.4-1.2,3.6-1.6c1.2-0.4,2-0.4,2.8-0.4c1.2,0,2.4,0.4,3.6,0.8c1.2,0.4,2,1.2,2.8,2.4c0.8,0.8,1.2,2,1.6,3.2
			c0.4,1.2,0.4,2.4,0.4,3.6c0,2-0.8,3.6-2.8,5.2c-1.6,1.6-3.6,2.8-6.4,4c-2.8,1.2-5.6,2-8.4,2.8c-2.8,0.4-6,0.8-9.2,0.8
			c-4.8,0-9.6-1.2-13.6-2.8c-4.4-1.6-8.4-4.4-12-8s-6.4-7.6-8-12.4s-2.8-9.6-2.4-15.6c0-4,0.4-7.6,1.6-11.2c0.8-3.6,2.4-6.8,4.4-10
			s4-6,6.4-8.4s5.2-4.4,8-6s6-2.8,8.8-3.6C66.8,220.2,70,219.8,73.2,219.8z M176.8,222.2c4.4-2,9.2-2.8,14-2.8
			c5.2,0,10,0.8,14.4,2.8s8.8,4.4,12.4,8.4c3.6,3.6,6.8,8,8.4,12.4c2,4.8,2.8,9.6,2.8,15.2S228,269,226,273.8
			c-2,4.8-4.8,9.2-8.4,13.2s-8,6.8-12.4,8.8s-9.6,2.8-15.2,2.8c-4.8,0-9.6-0.8-14-2.8c-4.4-1.6-8.4-4.4-12.4-8s-6.8-7.6-8.4-12.4
			c-2-4.4-2.8-9.6-2.8-15.2c0-6,0.8-11.6,2.8-16.4c2-5.2,4.8-9.6,8.8-13.2C168,227,172.4,224.2,176.8,222.2z M114.8,220.2
			c6,0,9.2,2.8,9.2,8.4v7.2v14.4v8v11.2v10.8h4.4h3.6l0,0l14.4-0.4c1.2,0,2.4,0,3.6,0.4c1.2,0.4,2,1.2,2.8,2s1.2,1.6,1.6,2.8
			c0.4,1.2,0.4,2,0.4,3.2c0,6.4-2.8,9.6-8.4,9.6l0,0h-12H126c-2.4,0-4.4,0-5.6,0c-5.2,0.4-8.8-0.4-10.8-1.6c-1.2-0.8-2-2-2.8-3.2
			s-1.2-2.8-1.2-4.8c0-1.6-0.4-2.8-0.4-4.4v-4.4l0.4-7.6l0.4-8v-6v-15.2v-14.4l0,0c0-1.2,0.4-2.4,0.8-3.6c0.4-1.2,1.2-2,2.4-2.8
			C109.6,220.6,112,220.2,114.8,220.2z M361.6,169.4H24c-1.2,0-2.4,0.4-3.2,1.2l0,0c-0.8,0.8-1.2,2-1.2,3.2v170.4
			c0,1.2,0.4,2.4,1.2,3.2c0.8,0.8,2,1.2,3.2,1.2h337.2c1.2,0,2.4-0.4,3.2-1.2l0,0c0.8-0.8,1.2-2,1.2-3.2V173.8
			c0-1.2-0.4-2.4-1.2-3.2l0,0C363.6,169.8,362.8,169.4,361.6,169.4z"/>
		<path style="fill:#F16A73;" d="M197.6,239c-2.4-0.8-4.8-1.6-7.6-1.6c-2.4,0-4.8,0.4-6.8,1.6s-4,2.4-6,4.8c-3.6,4-5.2,9.6-5.2,16
			c0,3.2,0.4,6,1.2,8.8c0.8,2.4,2.4,4.8,4,6.8c2,2,4,3.2,6,4.4c2.4,0.8,4.8,1.6,7.6,1.6c2.4,0,4.8-0.4,7.2-1.6c2-1.2,4.4-2.8,6-4.8
			c3.6-4.4,5.6-9.6,5.6-15.6c0-3.2-0.4-6-1.6-8.8c-0.8-2.4-2.4-4.8-4.4-6.8C202,241.4,200,239.8,197.6,239z"/>
	</g>
</g>
<g>
</g>
<g>
</g>
<g>
</g>
<g>
</g>
<g>
</g>
<g>
</g>
<g>
</g>
<g>
</g>
<g>
</g>
<g>
</g>
<g>
</g>
<g>
</g>
<g>
</g>
<g>
</g>
<g>
</g>
</svg>
