<?xml version="1.0"?>
<svg xmlns="http://www.w3.org/2000/svg" xmlns:xlink="http://www.w3.org/1999/xlink" version="1.1" id="Capa_1" x="0px" y="0px" viewBox="0 0 469.333 469.333" style="enable-background:new 0 0 469.333 469.333;" xml:space="preserve" width="512px" height="512px" class=""><g><g>
	<g>
		<g>
			<path d="M469.333,40.865c0.01-10.917-4.24-21.187-11.958-28.906C449.656,4.25,439.406,0,428.51,0h-0.031     c-10.896,0-21.146,4.25-28.854,11.958L383.5,28.083c-14.147-9.487-34.531-8.135-46.823,4.156l-4.719,4.719     c-4.167,4.167-4.167,10.917,0,15.083l85.333,85.333c2.083,2.083,4.813,3.125,7.542,3.125s5.458-1.042,7.542-3.125l4.719-4.719     c6.938-6.938,10.771-16.167,10.771-25.99c0-7.585-2.333-14.784-6.569-20.879l16.079-16.079     C465.083,62,469.333,51.75,469.333,40.865z" data-original="#000000" class="active-path" data-old_color="#000000" fill="#00AF80"/>
			<path d="M316.875,67.125c-4.167-4.167-10.917-4.167-15.083,0L75.958,292.958c-4.167,4.167-4.167,10.917,0,15.083l85.333,85.333     c2.083,2.083,4.813,3.125,7.542,3.125c2.729,0,5.458-1.042,7.542-3.125l203.208-203.208l7.375,7.375l-73.375,73.375     c-8.333,8.333-8.333,21.833,0,30.167c4.167,4.167,9.625,6.25,15.083,6.25c5.458,0,10.917-2.083,15.083-6.25l88.458-88.458     c8.333-8.333,8.333-21.833,0-30.167L316.875,67.125z" data-original="#000000" class="active-path" data-old_color="#000000" fill="#00AF80"/>
			<path d="M60.875,323.125c-2.688-2.698-6.615-3.76-10.281-2.771c-3.677,0.979-6.552,3.833-7.552,7.51L11.788,442.462l-8.663,8.663     c-4.167,4.167-4.167,10.917,0,15.083c2.083,2.083,4.813,3.125,7.542,3.125s5.458-1.042,7.542-3.125l8.663-8.663l114.598-31.254     c3.677-1,6.531-3.875,7.51-7.552c0.969-3.677-0.083-7.594-2.771-10.281L60.875,323.125z" data-original="#000000" class="active-path" data-old_color="#000000" fill="#00AF80"/>
		</g>
	</g>
</g></g> </svg>
