<?xml version="1.0"?>
<svg xmlns="http://www.w3.org/2000/svg" xmlns:xlink="http://www.w3.org/1999/xlink" version="1.1" id="Capa_1" x="0px" y="0px" width="512px" height="512px" viewBox="0 0 80 80" style="enable-background:new 0 0 80 80;" xml:space="preserve" class=""><g><g>
	<g>
		<path d="M32.091,53.193c-0.009-0.038-0.021-0.074-0.03-0.112c-0.104-0.418-0.231-0.829-0.384-1.228    c-0.005-0.016-0.01-0.03-0.016-0.045c-0.155-0.399-0.34-0.787-0.542-1.162c-0.024-0.045-0.045-0.09-0.069-0.133    c-0.199-0.357-0.422-0.701-0.662-1.033c-0.038-0.054-0.075-0.106-0.114-0.158c-0.242-0.322-0.502-0.631-0.78-0.924    c-0.047-0.049-0.095-0.099-0.143-0.146c-0.285-0.289-0.585-0.562-0.904-0.818c-0.049-0.039-0.099-0.076-0.148-0.113    c-0.332-0.256-0.677-0.496-1.041-0.715c-0.037-0.021-0.076-0.041-0.114-0.062c-0.386-0.225-0.787-0.43-1.206-0.605    c-0.137-0.058-0.256-0.144-0.353-0.248c-0.395-0.151-0.795-0.27-1.198-0.371c-0.103-0.025-0.205-0.049-0.308-0.072    c-0.372-0.082-0.746-0.148-1.123-0.188c-0.027-0.004-0.055-0.01-0.082-0.013v9.517h9.442c-0.004-0.039-0.009-0.076-0.013-0.114    C32.256,54.021,32.188,53.604,32.091,53.193z" data-original="#000000" class="active-path" data-old_color="#000000" fill="#1B9A78"/>
		<rect x="22.874" y="26.4" width="30.808" height="5.316" data-original="#000000" class="active-path" data-old_color="#000000" fill="#1B9A78"/>
		<path d="M55.605,33.089c-0.101,0.252-0.299,0.451-0.551,0.553l-8.394,8.393l2.399,2.133l10.475-9.572l-2.803-2.634L55.605,33.089z    " data-original="#000000" class="active-path" data-old_color="#000000" fill="#1B9A78"/>
		<path d="M49.428,46.445c-0.051,0.021-0.105,0.02-0.158,0.031c-0.065,0.013-0.129,0.034-0.195,0.034    c-0.001,0-0.002,0.001-0.004,0.001c-0.102,0-0.202-0.022-0.301-0.054c-0.015-0.005-0.031-0.003-0.047-0.009    c-0.113-0.042-0.221-0.105-0.316-0.19l-3.865-3.436c-0.206-0.183-0.327-0.442-0.335-0.718s0.099-0.543,0.292-0.736l7.652-7.653    H22.874v1.91h0.476c1.457,0,2.643,1.186,2.643,2.643v0.99c1.563,0.394,3.053,1.013,4.448,1.845l0.704-0.701    c0.994-0.996,2.737-0.997,3.735,0l2.088,2.088c0.511,0.511,0.783,1.195,0.764,1.926c0.043,0.673-0.235,1.411-0.763,1.939    l-0.661,0.662c0.171,0.297,0.344,0.616,0.521,0.965c0.557,1.105,0.986,2.244,1.281,3.394h0.989c0.708,0,1.372,0.274,1.871,0.774    c0.5,0.5,0.774,1.164,0.773,1.871v0.539h11.938V42.654l-3.938,3.597C49.648,46.338,49.541,46.402,49.428,46.445z M45.807,49.175    h-2.49c-0.553,0-1-0.446-1-1v-2.661c0-0.554,0.447-1,1-1c0.552,0,1,0.446,1,1v1.661h1.49c0.551,0,1,0.447,1,1    C46.807,48.729,46.357,49.175,45.807,49.175z" data-original="#000000" class="active-path" data-old_color="#000000" fill="#1B9A78"/>
		<path d="M40,0C17.909,0,0,17.909,0,40c0,22.092,17.909,40,40,40s40-17.908,40-40C80,17.909,62.091,0,40,0z M61.682,35.344    l-6,5.482v14.734c0,0.553-0.449,1-1,1H40.743h-7.366H21.874c-0.552,0-1-0.447-1-1V43.992v-7.365V25.4c0-0.553,0.448-1,1-1h32.808    c0.551,0,1,0.447,1,1v4.785l0.323-0.324c0.384-0.383,0.999-0.393,1.394-0.021l4.293,4.037c0.203,0.19,0.318,0.457,0.315,0.735    C62.005,34.89,61.887,35.156,61.682,35.344z" data-original="#000000" class="active-path" data-old_color="#000000" fill="#1B9A78"/>
	</g>
</g></g> </svg>
