<svg id="Capa_1" enable-background="new 0 0 512 512" height="512" viewBox="0 0 512 512" width="512" xmlns="http://www.w3.org/2000/svg" xmlns:xlink="http://www.w3.org/1999/xlink"><linearGradient id="SVGID_1_" gradientUnits="userSpaceOnUse" x1="256" x2="256" y1="512" y2="0"><stop offset="0" stop-color="#fd3a84"/><stop offset="1" stop-color="#ffa68d"/></linearGradient><linearGradient id="SVGID_2_" gradientUnits="userSpaceOnUse" x1="256" x2="256" y1="270" y2="111.006"><stop offset="0" stop-color="#ffc2cc"/><stop offset="1" stop-color="#fff2f4"/></linearGradient><g><g><g><path d="m256 0c-99.258 0-180 80.742-180 180 0 124.072 161.66 318.553 168.545 326.683 2.842 3.369 7.031 5.317 11.455 5.317s8.613-1.948 11.455-5.317c6.885-8.13 168.545-202.611 168.545-326.683 0-99.258-80.742-180-180-180z" fill="url(#SVGID_1_)"/></g></g><g><g><path d="m293.207 111.006c-16.494 0-28.682 7.529-37.207 16.992-8.525-9.463-20.713-16.992-37.207-16.992-29.268 0-52.207 24.331-52.207 55.386 0 32.622 25.371 54.053 60.498 83.687 6.006 5.068 12.393 10.459 19.102 16.26 2.813 2.446 6.299 3.662 9.814 3.662 3.486 0 7.002-1.216 9.814-3.662 6.65-5.757 12.979-11.089 18.926-16.113 33.052-27.888 60.674-50.114 60.674-83.833 0-31.056-22.939-55.387-52.207-55.387z" fill="url(#SVGID_2_)"/></g></g></g></svg>