<svg id="Capa_1" enable-background="new 0 0 512 512" height="512" viewBox="0 0 512 512" width="512" xmlns="http://www.w3.org/2000/svg" xmlns:xlink="http://www.w3.org/1999/xlink"><linearGradient id="SVGID_1_" gradientUnits="userSpaceOnUse" x1="256" x2="256" y1="512" y2="0"><stop offset="0" stop-color="#fd3a84"/><stop offset="1" stop-color="#ffa68d"/></linearGradient><g><g><path d="m293.207 111.006c-16.479 0-28.696 7.529-37.207 16.992-8.511-9.463-20.728-16.992-37.207-16.992-29.282 0-52.222 24.331-52.222 55.386 0 38.14 34.702 61.016 79.6 99.946 2.827 2.446 6.328 3.662 9.829 3.662s7.002-1.216 9.829-3.662c42.871-37.186 79.6-61.123 79.6-99.946 0-31.055-22.94-55.386-52.222-55.386zm-.601 92.578c-7.676 7.222-16.758 14.883-26.953 23.481-3.12 2.637-6.343 5.361-9.653 8.174-3.311-2.813-6.519-5.522-9.624-8.145-33.633-28.389-49.805-42.832-49.805-60.703 0-12.612 7.632-25.386 22.222-25.386 16.348 0 22.529 20.479 22.749 21.24 1.787 6.46 7.661 10.898 14.37 10.942h.103c6.665 0 12.539-4.438 14.414-10.84.249-.864 6.431-21.343 22.778-21.343 14.59 0 22.222 12.773 22.222 25.386 0 11.252-6.402 21.681-22.823 37.194zm-36.606-203.584c-99.258 0-180 80.742-180 180 0 124.072 161.66 318.553 168.545 326.683 2.856 3.369 7.046 5.317 11.455 5.317s8.599-1.948 11.455-5.317c6.885-8.13 168.545-202.611 168.545-326.683 0-99.258-80.742-180-180-180zm0 473.24c-36.87-46.274-150-198.011-150-293.24 0-82.705 67.295-150 150-150s150 67.295 150 150c0 95.156-113.13 246.951-150 293.24z" fill="url(#SVGID_1_)"/></g></g></svg>