<?xml version="1.0"?>
<svg xmlns="http://www.w3.org/2000/svg" id="Filled_expand" height="512px" viewBox="0 0 512 512" width="512px" data-name="Filled expand" class=""><g><g id="_13_copy_2" data-name="13 copy 2"><g><circle cx="256" cy="256" fill="#ff7a65" r="208" data-original="#FF7A65" class="" style="fill:#DA2D2D" data-old_color="#ff7a65"/><path d="m81.542 383.385a214.365 214.365 0 0 1 -41.542-127.385 218.294 218.294 0 0 1 2.54-33.221l15.813 2.442a202.327 202.327 0 0 0 -2.353 30.779 198.459 198.459 0 0 0 38.458 117.939z" data-original="#000000" class=""/><path d="m256 472a216.444 216.444 0 0 1 -58.149-7.919l4.3-15.412a201.149 201.149 0 0 0 123.079-4.969l5.54 15.01a215.284 215.284 0 0 1 -74.77 13.29z" data-original="#000000" class=""/><path d="m447.664 355.7-14.189-7.4a200.87 200.87 0 0 0 18.83-130.773l15.7-3.06a216.875 216.875 0 0 1 -20.341 141.233z" data-original="#000000" class=""/><path d="m371.379 92.616a200.169 200.169 0 0 0 -215.373-9.865l-8.012-13.851a216.17 216.17 0 0 1 232.627 10.654z" data-original="#000000" class=""/><circle cx="256" cy="255" fill="#fffefe" r="136" data-original="#FFFEFE" class="" style="fill:#F6DA63" data-old_color="#fffefe"/><path d="m376.153 210.765a128.041 128.041 0 0 0 -202.974-53.365l-10.359-12.192a144.046 144.046 0 0 1 228.347 60.027z" data-original="#000000" class=""/><path d="m256 399a142.924 142.924 0 0 1 -84.711-27.541l9.422-12.932a128.02 128.02 0 0 0 165.643-12.862l11.293 11.335a143.079 143.079 0 0 1 -101.647 42z" data-original="#000000" class=""/><g><path d="m484.883 138.464c-8.44 47.862-37.47 66.5-60.818 62.387s-44.251-31.563-35.812-79.426 36.933-99.092 66.374-93.9c30.449 5.368 38.695 63.075 30.256 110.939z" fill="#ffeae8" data-original="#FFEAE8" class="" style="fill:#F6DA63" data-old_color="#ffeae8"/><path d="m385.818 486.55-21.386-3.771a20 20 0 0 1 -16-24.257l60.947-260.261 31.514 5.557-31.743 265.41a20 20 0 0 1 -23.332 17.322z" fill="#ffeae8" data-original="#FFEAE8" class="" style="fill:#F6DA63" data-old_color="#ffeae8"/><path d="m492.137 65.278c-6.022-26.381-18.85-42.587-36.12-45.632-16.872-2.98-34.324 7.877-49.149 30.556-12.34 18.879-22 44.332-26.493 69.834-4.195 23.791-1.844 44.973 6.8 61.257a56.906 56.906 0 0 0 13.915 17.288l-60.448 258.119a28 28 0 0 0 22.4 33.959l21.387 3.772a28 28 0 0 0 32.664-24.25l31.631-264.481a57.551 57.551 0 0 0 16.7-10.611c13.69-12.347 23.143-31.447 27.338-55.238 4.538-25.758 4.314-52.94-.625-74.573zm-90.931 403a12 12 0 0 1 -14 10.394l-21.386-3.772a12 12 0 0 1 -9.6-14.552l59.361-253.488a44.2 44.2 0 0 0 14.811 2.542q.89 0 1.78-.035zm75.8-331.2c-4.51 25.577-14.614 39.205-22.3 46.134-8.8 7.931-19.456 11.49-29.252 9.763s-18.6-8.718-24.149-19.18c-4.85-9.138-9.684-25.4-5.174-50.978 4.074-23.1 13.094-46.976 24.129-63.857 4.845-7.414 17.051-23.79 30.265-23.79a15.586 15.586 0 0 1 2.712.236c23.831 4.194 31.652 56.952 23.763 101.669z" data-original="#000000" class=""/></g><g><path d="m162.8 482.727-21.384 3.773a20 20 0 0 1 -23.332-17.321l-31.743-265.412 31.514-5.557 60.945 260.261a20 20 0 0 1 -16 24.256z" fill="#ffeae8" data-original="#FFEAE8" class="" style="fill:#F6DA63" data-old_color="#ffeae8"/><path d="m48.971 129.337h96a0 0 0 0 1 0 0v42a30 30 0 0 1 -30 30h-36a30 30 0 0 1 -30-30v-42a0 0 0 0 1 0 0z" fill="#ffeae8" transform="matrix(.985 -.174 .174 .985 -27.237 19.351)" data-original="#FFEAE8" class="" style="fill:#F6DA63" data-old_color="#ffeae8"/><path d="m186.591 456.646-59.1-252.381a38.015 38.015 0 0 0 25.673-42.744l-7.293-41.361-19.451-110.299-15.757 2.779 18.06 102.42-15.758 2.778-18.059-102.42-15.757 2.782 18.059 102.42-15.756 2.78-18.06-102.425-15.757 2.778 18.06 102.42-15.757 2.778-18.06-102.42-15.756 2.779 19.448 110.3 7.293 41.362a38.064 38.064 0 0 0 36.449 31.393l30.829 257.764a27.992 27.992 0 0 0 27.839 24.671 27.817 27.817 0 0 0 4.825-.421l21.386-3.771a28 28 0 0 0 22.4-33.96zm-127.971-278.454-5.9-33.484 78.78-13.892 5.9 33.484a22.025 22.025 0 0 1 -17.845 25.486l-35.454 6.251a22.024 22.024 0 0 1 -25.481-17.845zm110.726 291.447a11.888 11.888 0 0 1 -7.933 5.21l-21.387 3.771a12 12 0 0 1 -14-10.393l-30.844-257.9 16.608-2.929 59.223 252.902a11.891 11.891 0 0 1 -1.667 9.339z" data-original="#000000" class=""/></g><path d="m256 328-67.924-66.227a40 40 0 1 1 55.848-57.279l12.076 11.774 12.076-11.774a40 40 0 1 1 55.848 57.279z" fill="#ff593f" data-original="#FF593F" class="active-path" style="fill:#9D0B0B" data-old_color="#ff593f"/><path d="m256 336a7.98 7.98 0 0 1 -5.585-2.272l-67.924-66.228a48 48 0 1 1 67.018-68.735l6.491 6.335 6.491-6.329a48 48 0 1 1 67.018 68.729l-11.924 11.626-11.17-11.455 11.924-11.627a32 32 0 1 0 -44.678-45.823l-12.076 11.779a8 8 0 0 1 -11.17 0l-12.076-11.774a32 32 0 1 0 -44.678 45.823l62.339 60.778 35.44-34.555 11.17 11.456-41.025 40a7.98 7.98 0 0 1 -5.585 2.272z" data-original="#000000" class=""/></g></g></g> </svg>
