<svg id="Capa_1" enable-background="new 0 0 512 512" height="512" viewBox="0 0 512 512" width="512" xmlns="http://www.w3.org/2000/svg" xmlns:xlink="http://www.w3.org/1999/xlink"><linearGradient id="SVGID_1_" gradientUnits="userSpaceOnUse" x1="256" x2="256" y1="512" y2="0"><stop offset="0" stop-color="#ffe59a"/><stop offset="1" stop-color="#ffffd5"/></linearGradient><linearGradient id="SVGID_2_" gradientUnits="userSpaceOnUse" x1="256" x2="256" y1="407" y2="105"><stop offset="0" stop-color="#ffde00"/><stop offset="1" stop-color="#fd5900"/></linearGradient><g><g><circle cx="256" cy="256" fill="url(#SVGID_1_)" r="256"/></g><g><g><path d="m171.992 106.333c-2.615-1.622-5.888-1.778-8.624-.39-24.903 12.473-40.368 37.541-40.368 65.428v62.678c0 25.964 13.521 49.345 35.467 62.532v101.537c0 4.91 3.966 8.882 8.867 8.882s8.867-3.973 8.867-8.882v-284.23c-.001-3.079-1.594-5.933-4.209-7.555zm101.741-1.327c-4.901 0-8.867 3.973-8.867 8.882v79.939h-17.733v-79.939c0-4.909-3.966-8.882-8.867-8.882s-8.867 3.973-8.867 8.882v79.939h-17.733v-79.939c0-4.909-3.966-8.882-8.867-8.882s-8.867 3.973-8.867 8.882v88.822c0 21.445 15.251 39.385 35.467 43.512v151.896c0 4.91 3.966 8.882 8.867 8.882s8.867-3.973 8.867-8.882v-151.896c20.215-4.127 35.467-22.067 35.467-43.512v-88.822c0-4.909-3.966-8.882-8.867-8.882zm70.934 0c-27.466 0-44.333 51.732-44.333 88.822 0 38.811 19.415 49.86 35.467 52.474v151.816c0 4.91 3.966 8.882 8.867 8.882s8.867-3.973 8.867-8.882v-151.817c16.05-2.613 35.465-13.663 35.465-52.473 0-37.09-16.867-88.822-44.333-88.822z" fill="url(#SVGID_2_)"/></g></g></g></svg>